<mxfile host="Electron" agent="Mozilla/5.0 (Windows NT 10.0; Win64; x64) AppleWebKit/537.36 (KHTML, like Gecko) draw.io/24.7.8 Chrome/128.0.6613.36 Electron/32.0.1 Safari/537.36" version="24.7.8">
  <diagram name="PÃ¡gina-1" id="G0LMyIn8iOofQ99Z_jgs">
    <mxGraphModel dx="685" dy="636" grid="1" gridSize="13" guides="1" tooltips="1" connect="1" arrows="1" fold="1" page="1" pageScale="1" pageWidth="827" pageHeight="1169" math="0" shadow="0">
      <root>
        <mxCell id="0" />
        <mxCell id="1" parent="0" />
        <mxCell id="rNS2HbV7GtbA0sjUmiK6-1" value="Tipo_usuario" style="swimlane;fontStyle=1;align=center;verticalAlign=top;childLayout=stackLayout;horizontal=1;startSize=26;horizontalStack=0;resizeParent=1;resizeParentMax=0;resizeLast=0;collapsible=1;marginBottom=0;whiteSpace=wrap;html=1;" parent="1" vertex="1">
          <mxGeometry x="214" y="1820" width="200" height="104" as="geometry" />
        </mxCell>
        <mxCell id="rNS2HbV7GtbA0sjUmiK6-24" value="- id_tipo_usuario: int&lt;span style=&quot;white-space: pre;&quot;&gt;&#x9;&lt;/span&gt;" style="text;strokeColor=none;fillColor=none;align=left;verticalAlign=top;spacingLeft=4;spacingRight=4;overflow=hidden;rotatable=0;points=[[0,0.5],[1,0.5]];portConstraint=eastwest;whiteSpace=wrap;html=1;" parent="rNS2HbV7GtbA0sjUmiK6-1" vertex="1">
          <mxGeometry y="26" width="200" height="26" as="geometry" />
        </mxCell>
        <mxCell id="rNS2HbV7GtbA0sjUmiK6-23" value="- tipo_usuario: str" style="text;strokeColor=none;fillColor=none;align=left;verticalAlign=top;spacingLeft=4;spacingRight=4;overflow=hidden;rotatable=0;points=[[0,0.5],[1,0.5]];portConstraint=eastwest;whiteSpace=wrap;html=1;" parent="rNS2HbV7GtbA0sjUmiK6-1" vertex="1">
          <mxGeometry y="52" width="200" height="26" as="geometry" />
        </mxCell>
        <mxCell id="rNS2HbV7GtbA0sjUmiK6-2" value="- descripcion_tipo_usuario: str" style="text;strokeColor=none;fillColor=none;align=left;verticalAlign=top;spacingLeft=4;spacingRight=4;overflow=hidden;rotatable=0;points=[[0,0.5],[1,0.5]];portConstraint=eastwest;whiteSpace=wrap;html=1;" parent="rNS2HbV7GtbA0sjUmiK6-1" vertex="1">
          <mxGeometry y="78" width="200" height="26" as="geometry" />
        </mxCell>
        <mxCell id="rNS2HbV7GtbA0sjUmiK6-5" value="Tipo_Categoria" style="swimlane;fontStyle=1;align=center;verticalAlign=top;childLayout=stackLayout;horizontal=1;startSize=26;horizontalStack=0;resizeParent=1;resizeParentMax=0;resizeLast=0;collapsible=1;marginBottom=0;whiteSpace=wrap;html=1;" parent="1" vertex="1">
          <mxGeometry x="780" y="1157" width="200" height="78" as="geometry" />
        </mxCell>
        <mxCell id="rNS2HbV7GtbA0sjUmiK6-25" value="- id_tipo_categoria: int" style="text;strokeColor=none;fillColor=none;align=left;verticalAlign=top;spacingLeft=4;spacingRight=4;overflow=hidden;rotatable=0;points=[[0,0.5],[1,0.5]];portConstraint=eastwest;whiteSpace=wrap;html=1;" parent="rNS2HbV7GtbA0sjUmiK6-5" vertex="1">
          <mxGeometry y="26" width="200" height="26" as="geometry" />
        </mxCell>
        <mxCell id="rNS2HbV7GtbA0sjUmiK6-6" value="- tipo_catetgoria: str" style="text;strokeColor=none;fillColor=none;align=left;verticalAlign=top;spacingLeft=4;spacingRight=4;overflow=hidden;rotatable=0;points=[[0,0.5],[1,0.5]];portConstraint=eastwest;whiteSpace=wrap;html=1;" parent="rNS2HbV7GtbA0sjUmiK6-5" vertex="1">
          <mxGeometry y="52" width="200" height="26" as="geometry" />
        </mxCell>
        <mxCell id="rNS2HbV7GtbA0sjUmiK6-9" value="Autor" style="swimlane;fontStyle=1;align=center;verticalAlign=top;childLayout=stackLayout;horizontal=1;startSize=26;horizontalStack=0;resizeParent=1;resizeParentMax=0;resizeLast=0;collapsible=1;marginBottom=0;whiteSpace=wrap;html=1;" parent="1" vertex="1">
          <mxGeometry x="715" y="1508" width="240" height="242" as="geometry" />
        </mxCell>
        <mxCell id="rNS2HbV7GtbA0sjUmiK6-10" value="- id_autor: int" style="text;strokeColor=none;fillColor=none;align=left;verticalAlign=top;spacingLeft=4;spacingRight=4;overflow=hidden;rotatable=0;points=[[0,0.5],[1,0.5]];portConstraint=eastwest;whiteSpace=wrap;html=1;" parent="rNS2HbV7GtbA0sjUmiK6-9" vertex="1">
          <mxGeometry y="26" width="240" height="26" as="geometry" />
        </mxCell>
        <mxCell id="rNS2HbV7GtbA0sjUmiK6-17" value="- nombre_autor: str" style="text;strokeColor=none;fillColor=none;align=left;verticalAlign=top;spacingLeft=4;spacingRight=4;overflow=hidden;rotatable=0;points=[[0,0.5],[1,0.5]];portConstraint=eastwest;whiteSpace=wrap;html=1;" parent="rNS2HbV7GtbA0sjUmiK6-9" vertex="1">
          <mxGeometry y="52" width="240" height="26" as="geometry" />
        </mxCell>
        <mxCell id="rNS2HbV7GtbA0sjUmiK6-18" value="- seudonimo_autor: str" style="text;strokeColor=none;fillColor=none;align=left;verticalAlign=top;spacingLeft=4;spacingRight=4;overflow=hidden;rotatable=0;points=[[0,0.5],[1,0.5]];portConstraint=eastwest;whiteSpace=wrap;html=1;" parent="rNS2HbV7GtbA0sjUmiK6-9" vertex="1">
          <mxGeometry y="78" width="240" height="26" as="geometry" />
        </mxCell>
        <mxCell id="rNS2HbV7GtbA0sjUmiK6-19" value="- fecha_nac: str" style="text;strokeColor=none;fillColor=none;align=left;verticalAlign=top;spacingLeft=4;spacingRight=4;overflow=hidden;rotatable=0;points=[[0,0.5],[1,0.5]];portConstraint=eastwest;whiteSpace=wrap;html=1;" parent="rNS2HbV7GtbA0sjUmiK6-9" vertex="1">
          <mxGeometry y="104" width="240" height="26" as="geometry" />
        </mxCell>
        <mxCell id="rNS2HbV7GtbA0sjUmiK6-21" value="- fecha_def: str" style="text;strokeColor=none;fillColor=none;align=left;verticalAlign=top;spacingLeft=4;spacingRight=4;overflow=hidden;rotatable=0;points=[[0,0.5],[1,0.5]];portConstraint=eastwest;whiteSpace=wrap;html=1;" parent="rNS2HbV7GtbA0sjUmiK6-9" vertex="1">
          <mxGeometry y="130" width="240" height="26" as="geometry" />
        </mxCell>
        <mxCell id="rNS2HbV7GtbA0sjUmiK6-22" value="- biografia_autor: str" style="text;strokeColor=none;fillColor=none;align=left;verticalAlign=top;spacingLeft=4;spacingRight=4;overflow=hidden;rotatable=0;points=[[0,0.5],[1,0.5]];portConstraint=eastwest;whiteSpace=wrap;html=1;" parent="rNS2HbV7GtbA0sjUmiK6-9" vertex="1">
          <mxGeometry y="156" width="240" height="26" as="geometry" />
        </mxCell>
        <mxCell id="rNS2HbV7GtbA0sjUmiK6-20" value="- foto_autor: str" style="text;strokeColor=none;fillColor=none;align=left;verticalAlign=top;spacingLeft=4;spacingRight=4;overflow=hidden;rotatable=0;points=[[0,0.5],[1,0.5]];portConstraint=eastwest;whiteSpace=wrap;html=1;" parent="rNS2HbV7GtbA0sjUmiK6-9" vertex="1">
          <mxGeometry y="182" width="240" height="26" as="geometry" />
        </mxCell>
        <mxCell id="rNS2HbV7GtbA0sjUmiK6-11" value="" style="line;strokeWidth=1;fillColor=none;align=left;verticalAlign=middle;spacingTop=-1;spacingLeft=3;spacingRight=3;rotatable=0;labelPosition=right;points=[];portConstraint=eastwest;strokeColor=inherit;" parent="rNS2HbV7GtbA0sjUmiK6-9" vertex="1">
          <mxGeometry y="208" width="240" height="8" as="geometry" />
        </mxCell>
        <mxCell id="rNS2HbV7GtbA0sjUmiK6-12" value="+ manejo_fechas(fecha: str): str" style="text;strokeColor=none;fillColor=none;align=left;verticalAlign=top;spacingLeft=4;spacingRight=4;overflow=hidden;rotatable=0;points=[[0,0.5],[1,0.5]];portConstraint=eastwest;whiteSpace=wrap;html=1;" parent="rNS2HbV7GtbA0sjUmiK6-9" vertex="1">
          <mxGeometry y="216" width="240" height="26" as="geometry" />
        </mxCell>
        <mxCell id="rNS2HbV7GtbA0sjUmiK6-13" value="Paises" style="swimlane;fontStyle=1;align=center;verticalAlign=top;childLayout=stackLayout;horizontal=1;startSize=26;horizontalStack=0;resizeParent=1;resizeParentMax=0;resizeLast=0;collapsible=1;marginBottom=0;whiteSpace=wrap;html=1;" parent="1" vertex="1">
          <mxGeometry x="403" y="1539" width="240" height="130" as="geometry" />
        </mxCell>
        <mxCell id="rNS2HbV7GtbA0sjUmiK6-14" value="- codigo_pais: str" style="text;strokeColor=none;fillColor=none;align=left;verticalAlign=top;spacingLeft=4;spacingRight=4;overflow=hidden;rotatable=0;points=[[0,0.5],[1,0.5]];portConstraint=eastwest;whiteSpace=wrap;html=1;" parent="rNS2HbV7GtbA0sjUmiK6-13" vertex="1">
          <mxGeometry y="26" width="240" height="26" as="geometry" />
        </mxCell>
        <mxCell id="rNS2HbV7GtbA0sjUmiK6-26" value="- codigo_iso3_pais: str" style="text;strokeColor=none;fillColor=none;align=left;verticalAlign=top;spacingLeft=4;spacingRight=4;overflow=hidden;rotatable=0;points=[[0,0.5],[1,0.5]];portConstraint=eastwest;whiteSpace=wrap;html=1;" parent="rNS2HbV7GtbA0sjUmiK6-13" vertex="1">
          <mxGeometry y="52" width="240" height="26" as="geometry" />
        </mxCell>
        <mxCell id="rNS2HbV7GtbA0sjUmiK6-29" value="- nombre_pais: str" style="text;strokeColor=none;fillColor=none;align=left;verticalAlign=top;spacingLeft=4;spacingRight=4;overflow=hidden;rotatable=0;points=[[0,0.5],[1,0.5]];portConstraint=eastwest;whiteSpace=wrap;html=1;" parent="rNS2HbV7GtbA0sjUmiK6-13" vertex="1">
          <mxGeometry y="78" width="240" height="26" as="geometry" />
        </mxCell>
        <mxCell id="rNS2HbV7GtbA0sjUmiK6-27" value="- gentilicio_pais: str" style="text;strokeColor=none;fillColor=none;align=left;verticalAlign=top;spacingLeft=4;spacingRight=4;overflow=hidden;rotatable=0;points=[[0,0.5],[1,0.5]];portConstraint=eastwest;whiteSpace=wrap;html=1;" parent="rNS2HbV7GtbA0sjUmiK6-13" vertex="1">
          <mxGeometry y="104" width="240" height="26" as="geometry" />
        </mxCell>
        <mxCell id="rNS2HbV7GtbA0sjUmiK6-34" value="Libro" style="swimlane;fontStyle=1;align=center;verticalAlign=top;childLayout=stackLayout;horizontal=1;startSize=26;horizontalStack=0;resizeParent=1;resizeParentMax=0;resizeLast=0;collapsible=1;marginBottom=0;whiteSpace=wrap;html=1;" parent="1" vertex="1">
          <mxGeometry x="1066" y="1508" width="160" height="138" as="geometry" />
        </mxCell>
        <mxCell id="rNS2HbV7GtbA0sjUmiK6-35" value="- isbn: str" style="text;strokeColor=none;fillColor=none;align=left;verticalAlign=top;spacingLeft=4;spacingRight=4;overflow=hidden;rotatable=0;points=[[0,0.5],[1,0.5]];portConstraint=eastwest;whiteSpace=wrap;html=1;" parent="rNS2HbV7GtbA0sjUmiK6-34" vertex="1">
          <mxGeometry y="26" width="160" height="26" as="geometry" />
        </mxCell>
        <mxCell id="rNS2HbV7GtbA0sjUmiK6-38" value="- titulo: str" style="text;strokeColor=none;fillColor=none;align=left;verticalAlign=top;spacingLeft=4;spacingRight=4;overflow=hidden;rotatable=0;points=[[0,0.5],[1,0.5]];portConstraint=eastwest;whiteSpace=wrap;html=1;" parent="rNS2HbV7GtbA0sjUmiK6-34" vertex="1">
          <mxGeometry y="52" width="160" height="26" as="geometry" />
        </mxCell>
        <mxCell id="rNS2HbV7GtbA0sjUmiK6-39" value="- id_autor: int" style="text;strokeColor=none;fillColor=none;align=left;verticalAlign=top;spacingLeft=4;spacingRight=4;overflow=hidden;rotatable=0;points=[[0,0.5],[1,0.5]];portConstraint=eastwest;whiteSpace=wrap;html=1;" parent="rNS2HbV7GtbA0sjUmiK6-34" vertex="1">
          <mxGeometry y="78" width="160" height="26" as="geometry" />
        </mxCell>
        <mxCell id="rNS2HbV7GtbA0sjUmiK6-36" value="" style="line;strokeWidth=1;fillColor=none;align=left;verticalAlign=middle;spacingTop=-1;spacingLeft=3;spacingRight=3;rotatable=0;labelPosition=right;points=[];portConstraint=eastwest;strokeColor=inherit;" parent="rNS2HbV7GtbA0sjUmiK6-34" vertex="1">
          <mxGeometry y="104" width="160" height="8" as="geometry" />
        </mxCell>
        <mxCell id="rNS2HbV7GtbA0sjUmiK6-37" value="+ validar_isbn(): bool" style="text;strokeColor=none;fillColor=none;align=left;verticalAlign=top;spacingLeft=4;spacingRight=4;overflow=hidden;rotatable=0;points=[[0,0.5],[1,0.5]];portConstraint=eastwest;whiteSpace=wrap;html=1;" parent="rNS2HbV7GtbA0sjUmiK6-34" vertex="1">
          <mxGeometry y="112" width="160" height="26" as="geometry" />
        </mxCell>
        <mxCell id="rNS2HbV7GtbA0sjUmiK6-40" value="Editorial" style="swimlane;fontStyle=1;align=center;verticalAlign=top;childLayout=stackLayout;horizontal=1;startSize=26;horizontalStack=0;resizeParent=1;resizeParentMax=0;resizeLast=0;collapsible=1;marginBottom=0;whiteSpace=wrap;html=1;" parent="1" vertex="1">
          <mxGeometry x="689" y="1810" width="210" height="216" as="geometry" />
        </mxCell>
        <mxCell id="rNS2HbV7GtbA0sjUmiK6-41" value="- id_editorial: int" style="text;strokeColor=none;fillColor=none;align=left;verticalAlign=top;spacingLeft=4;spacingRight=4;overflow=hidden;rotatable=0;points=[[0,0.5],[1,0.5]];portConstraint=eastwest;whiteSpace=wrap;html=1;" parent="rNS2HbV7GtbA0sjUmiK6-40" vertex="1">
          <mxGeometry y="26" width="210" height="26" as="geometry" />
        </mxCell>
        <mxCell id="rNS2HbV7GtbA0sjUmiK6-45" value="- nombre_edittorial: str" style="text;strokeColor=none;fillColor=none;align=left;verticalAlign=top;spacingLeft=4;spacingRight=4;overflow=hidden;rotatable=0;points=[[0,0.5],[1,0.5]];portConstraint=eastwest;whiteSpace=wrap;html=1;" parent="rNS2HbV7GtbA0sjUmiK6-40" vertex="1">
          <mxGeometry y="52" width="210" height="26" as="geometry" />
        </mxCell>
        <mxCell id="rNS2HbV7GtbA0sjUmiK6-47" value="- fecha_fundacion: str" style="text;strokeColor=none;fillColor=none;align=left;verticalAlign=top;spacingLeft=4;spacingRight=4;overflow=hidden;rotatable=0;points=[[0,0.5],[1,0.5]];portConstraint=eastwest;whiteSpace=wrap;html=1;" parent="rNS2HbV7GtbA0sjUmiK6-40" vertex="1">
          <mxGeometry y="78" width="210" height="26" as="geometry" />
        </mxCell>
        <mxCell id="rNS2HbV7GtbA0sjUmiK6-48" value="- codigo_pais: str" style="text;strokeColor=none;fillColor=none;align=left;verticalAlign=top;spacingLeft=4;spacingRight=4;overflow=hidden;rotatable=0;points=[[0,0.5],[1,0.5]];portConstraint=eastwest;whiteSpace=wrap;html=1;" parent="rNS2HbV7GtbA0sjUmiK6-40" vertex="1">
          <mxGeometry y="104" width="210" height="26" as="geometry" />
        </mxCell>
        <mxCell id="rNS2HbV7GtbA0sjUmiK6-46" value="- telefono_contacto: str" style="text;strokeColor=none;fillColor=none;align=left;verticalAlign=top;spacingLeft=4;spacingRight=4;overflow=hidden;rotatable=0;points=[[0,0.5],[1,0.5]];portConstraint=eastwest;whiteSpace=wrap;html=1;" parent="rNS2HbV7GtbA0sjUmiK6-40" vertex="1">
          <mxGeometry y="130" width="210" height="26" as="geometry" />
        </mxCell>
        <mxCell id="rNS2HbV7GtbA0sjUmiK6-44" value="- correo_contacto: str" style="text;strokeColor=none;fillColor=none;align=left;verticalAlign=top;spacingLeft=4;spacingRight=4;overflow=hidden;rotatable=0;points=[[0,0.5],[1,0.5]];portConstraint=eastwest;whiteSpace=wrap;html=1;" parent="rNS2HbV7GtbA0sjUmiK6-40" vertex="1">
          <mxGeometry y="156" width="210" height="26" as="geometry" />
        </mxCell>
        <mxCell id="rNS2HbV7GtbA0sjUmiK6-42" value="" style="line;strokeWidth=1;fillColor=none;align=left;verticalAlign=middle;spacingTop=-1;spacingLeft=3;spacingRight=3;rotatable=0;labelPosition=right;points=[];portConstraint=eastwest;strokeColor=inherit;" parent="rNS2HbV7GtbA0sjUmiK6-40" vertex="1">
          <mxGeometry y="182" width="210" height="8" as="geometry" />
        </mxCell>
        <mxCell id="rNS2HbV7GtbA0sjUmiK6-43" value="+ validar_correo(): bool" style="text;strokeColor=none;fillColor=none;align=left;verticalAlign=top;spacingLeft=4;spacingRight=4;overflow=hidden;rotatable=0;points=[[0,0.5],[1,0.5]];portConstraint=eastwest;whiteSpace=wrap;html=1;" parent="rNS2HbV7GtbA0sjUmiK6-40" vertex="1">
          <mxGeometry y="190" width="210" height="26" as="geometry" />
        </mxCell>
        <mxCell id="rNS2HbV7GtbA0sjUmiK6-52" value="Detalle_Libro" style="swimlane;fontStyle=1;align=center;verticalAlign=top;childLayout=stackLayout;horizontal=1;startSize=26;horizontalStack=0;resizeParent=1;resizeParentMax=0;resizeLast=0;collapsible=1;marginBottom=0;whiteSpace=wrap;html=1;" parent="1" vertex="1">
          <mxGeometry x="981" y="1708" width="330" height="216" as="geometry" />
        </mxCell>
        <mxCell id="rNS2HbV7GtbA0sjUmiK6-56" value="- id_detalle_libro: int" style="text;strokeColor=none;fillColor=none;align=left;verticalAlign=top;spacingLeft=4;spacingRight=4;overflow=hidden;rotatable=0;points=[[0,0.5],[1,0.5]];portConstraint=eastwest;whiteSpace=wrap;html=1;" parent="rNS2HbV7GtbA0sjUmiK6-52" vertex="1">
          <mxGeometry y="26" width="330" height="26" as="geometry" />
        </mxCell>
        <mxCell id="rNS2HbV7GtbA0sjUmiK6-53" value="- fecha_edicion: str" style="text;strokeColor=none;fillColor=none;align=left;verticalAlign=top;spacingLeft=4;spacingRight=4;overflow=hidden;rotatable=0;points=[[0,0.5],[1,0.5]];portConstraint=eastwest;whiteSpace=wrap;html=1;" parent="rNS2HbV7GtbA0sjUmiK6-52" vertex="1">
          <mxGeometry y="52" width="330" height="26" as="geometry" />
        </mxCell>
        <mxCell id="rNS2HbV7GtbA0sjUmiK6-58" value="- numero_paginas: int" style="text;strokeColor=none;fillColor=none;align=left;verticalAlign=top;spacingLeft=4;spacingRight=4;overflow=hidden;rotatable=0;points=[[0,0.5],[1,0.5]];portConstraint=eastwest;whiteSpace=wrap;html=1;" parent="rNS2HbV7GtbA0sjUmiK6-52" vertex="1">
          <mxGeometry y="78" width="330" height="26" as="geometry" />
        </mxCell>
        <mxCell id="rNS2HbV7GtbA0sjUmiK6-59" value="- id_categoria_libro: int" style="text;strokeColor=none;fillColor=none;align=left;verticalAlign=top;spacingLeft=4;spacingRight=4;overflow=hidden;rotatable=0;points=[[0,0.5],[1,0.5]];portConstraint=eastwest;whiteSpace=wrap;html=1;" parent="rNS2HbV7GtbA0sjUmiK6-52" vertex="1">
          <mxGeometry y="104" width="330" height="26" as="geometry" />
        </mxCell>
        <mxCell id="rNS2HbV7GtbA0sjUmiK6-60" value="- cantidad_ejemplares: int" style="text;strokeColor=none;fillColor=none;align=left;verticalAlign=top;spacingLeft=4;spacingRight=4;overflow=hidden;rotatable=0;points=[[0,0.5],[1,0.5]];portConstraint=eastwest;whiteSpace=wrap;html=1;" parent="rNS2HbV7GtbA0sjUmiK6-52" vertex="1">
          <mxGeometry y="130" width="330" height="26" as="geometry" />
        </mxCell>
        <mxCell id="rNS2HbV7GtbA0sjUmiK6-57" value="- ejemplares_disponibles: int" style="text;strokeColor=none;fillColor=none;align=left;verticalAlign=top;spacingLeft=4;spacingRight=4;overflow=hidden;rotatable=0;points=[[0,0.5],[1,0.5]];portConstraint=eastwest;whiteSpace=wrap;html=1;" parent="rNS2HbV7GtbA0sjUmiK6-52" vertex="1">
          <mxGeometry y="156" width="330" height="26" as="geometry" />
        </mxCell>
        <mxCell id="rNS2HbV7GtbA0sjUmiK6-54" value="" style="line;strokeWidth=1;fillColor=none;align=left;verticalAlign=middle;spacingTop=-1;spacingLeft=3;spacingRight=3;rotatable=0;labelPosition=right;points=[];portConstraint=eastwest;strokeColor=inherit;" parent="rNS2HbV7GtbA0sjUmiK6-52" vertex="1">
          <mxGeometry y="182" width="330" height="8" as="geometry" />
        </mxCell>
        <mxCell id="rNS2HbV7GtbA0sjUmiK6-55" value="+ actualizar_disponibilidad(origen: str, cantidad: int) : void" style="text;strokeColor=none;fillColor=none;align=left;verticalAlign=top;spacingLeft=4;spacingRight=4;overflow=hidden;rotatable=0;points=[[0,0.5],[1,0.5]];portConstraint=eastwest;whiteSpace=wrap;html=1;" parent="rNS2HbV7GtbA0sjUmiK6-52" vertex="1">
          <mxGeometry y="190" width="330" height="26" as="geometry" />
        </mxCell>
        <mxCell id="rNS2HbV7GtbA0sjUmiK6-61" value="Categoria_Libro" style="swimlane;fontStyle=1;align=center;verticalAlign=top;childLayout=stackLayout;horizontal=1;startSize=26;horizontalStack=0;resizeParent=1;resizeParentMax=0;resizeLast=0;collapsible=1;marginBottom=0;whiteSpace=wrap;html=1;" parent="1" vertex="1">
          <mxGeometry x="1066" y="1157" width="160" height="78" as="geometry" />
        </mxCell>
        <mxCell id="rNS2HbV7GtbA0sjUmiK6-62" value="- id_categoria_libro: int" style="text;strokeColor=none;fillColor=none;align=left;verticalAlign=top;spacingLeft=4;spacingRight=4;overflow=hidden;rotatable=0;points=[[0,0.5],[1,0.5]];portConstraint=eastwest;whiteSpace=wrap;html=1;" parent="rNS2HbV7GtbA0sjUmiK6-61" vertex="1">
          <mxGeometry y="26" width="160" height="26" as="geometry" />
        </mxCell>
        <mxCell id="rNS2HbV7GtbA0sjUmiK6-65" value="- categoria_libro: str" style="text;strokeColor=none;fillColor=none;align=left;verticalAlign=top;spacingLeft=4;spacingRight=4;overflow=hidden;rotatable=0;points=[[0,0.5],[1,0.5]];portConstraint=eastwest;whiteSpace=wrap;html=1;" parent="rNS2HbV7GtbA0sjUmiK6-61" vertex="1">
          <mxGeometry y="52" width="160" height="26" as="geometry" />
        </mxCell>
        <mxCell id="rNS2HbV7GtbA0sjUmiK6-66" value="Biblioteca" style="swimlane;fontStyle=1;align=center;verticalAlign=top;childLayout=stackLayout;horizontal=1;startSize=26;horizontalStack=0;resizeParent=1;resizeParentMax=0;resizeLast=0;collapsible=1;marginBottom=0;whiteSpace=wrap;html=1;" parent="1" vertex="1">
          <mxGeometry x="750" y="1261" width="260" height="216" as="geometry" />
        </mxCell>
        <mxCell id="rNS2HbV7GtbA0sjUmiK6-67" value="- id_biblioteca: int" style="text;strokeColor=none;fillColor=none;align=left;verticalAlign=top;spacingLeft=4;spacingRight=4;overflow=hidden;rotatable=0;points=[[0,0.5],[1,0.5]];portConstraint=eastwest;whiteSpace=wrap;html=1;" parent="rNS2HbV7GtbA0sjUmiK6-66" vertex="1">
          <mxGeometry y="26" width="260" height="26" as="geometry" />
        </mxCell>
        <mxCell id="rNS2HbV7GtbA0sjUmiK6-73" value="- nombre_biblioteca: str" style="text;strokeColor=none;fillColor=none;align=left;verticalAlign=top;spacingLeft=4;spacingRight=4;overflow=hidden;rotatable=0;points=[[0,0.5],[1,0.5]];portConstraint=eastwest;whiteSpace=wrap;html=1;" parent="rNS2HbV7GtbA0sjUmiK6-66" vertex="1">
          <mxGeometry y="52" width="260" height="26" as="geometry" />
        </mxCell>
        <mxCell id="rNS2HbV7GtbA0sjUmiK6-72" value="- dirreccion_biblioteca: str" style="text;strokeColor=none;fillColor=none;align=left;verticalAlign=top;spacingLeft=4;spacingRight=4;overflow=hidden;rotatable=0;points=[[0,0.5],[1,0.5]];portConstraint=eastwest;whiteSpace=wrap;html=1;" parent="rNS2HbV7GtbA0sjUmiK6-66" vertex="1">
          <mxGeometry y="78" width="260" height="26" as="geometry" />
        </mxCell>
        <mxCell id="rNS2HbV7GtbA0sjUmiK6-74" value="- telefono_bilioteca: str" style="text;strokeColor=none;fillColor=none;align=left;verticalAlign=top;spacingLeft=4;spacingRight=4;overflow=hidden;rotatable=0;points=[[0,0.5],[1,0.5]];portConstraint=eastwest;whiteSpace=wrap;html=1;" parent="rNS2HbV7GtbA0sjUmiK6-66" vertex="1">
          <mxGeometry y="104" width="260" height="26" as="geometry" />
        </mxCell>
        <mxCell id="rNS2HbV7GtbA0sjUmiK6-68" value="" style="line;strokeWidth=1;fillColor=none;align=left;verticalAlign=middle;spacingTop=-1;spacingLeft=3;spacingRight=3;rotatable=0;labelPosition=right;points=[];portConstraint=eastwest;strokeColor=inherit;" parent="rNS2HbV7GtbA0sjUmiK6-66" vertex="1">
          <mxGeometry y="130" width="260" height="8" as="geometry" />
        </mxCell>
        <mxCell id="rNS2HbV7GtbA0sjUmiK6-69" value="+ buscar_libro(identificacion: str) : void" style="text;strokeColor=none;fillColor=none;align=left;verticalAlign=top;spacingLeft=4;spacingRight=4;overflow=hidden;rotatable=0;points=[[0,0.5],[1,0.5]];portConstraint=eastwest;whiteSpace=wrap;html=1;" parent="rNS2HbV7GtbA0sjUmiK6-66" vertex="1">
          <mxGeometry y="138" width="260" height="26" as="geometry" />
        </mxCell>
        <mxCell id="rNS2HbV7GtbA0sjUmiK6-75" value="+ prestar_libro() : void " style="text;strokeColor=none;fillColor=none;align=left;verticalAlign=top;spacingLeft=4;spacingRight=4;overflow=hidden;rotatable=0;points=[[0,0.5],[1,0.5]];portConstraint=eastwest;whiteSpace=wrap;html=1;" parent="rNS2HbV7GtbA0sjUmiK6-66" vertex="1">
          <mxGeometry y="164" width="260" height="26" as="geometry" />
        </mxCell>
        <mxCell id="rNS2HbV7GtbA0sjUmiK6-76" value="+ devolver_libro() : void  " style="text;strokeColor=none;fillColor=none;align=left;verticalAlign=top;spacingLeft=4;spacingRight=4;overflow=hidden;rotatable=0;points=[[0,0.5],[1,0.5]];portConstraint=eastwest;whiteSpace=wrap;html=1;" parent="rNS2HbV7GtbA0sjUmiK6-66" vertex="1">
          <mxGeometry y="190" width="260" height="26" as="geometry" />
        </mxCell>
        <mxCell id="rNS2HbV7GtbA0sjUmiK6-77" value="Prestamo" style="swimlane;fontStyle=1;align=center;verticalAlign=top;childLayout=stackLayout;horizontal=1;startSize=26;horizontalStack=0;resizeParent=1;resizeParentMax=0;resizeLast=0;collapsible=1;marginBottom=0;whiteSpace=wrap;html=1;" parent="1" vertex="1">
          <mxGeometry x="1038" y="1989" width="450" height="216" as="geometry" />
        </mxCell>
        <mxCell id="rNS2HbV7GtbA0sjUmiK6-81" value="- id_prestamo : int " style="text;strokeColor=none;fillColor=none;align=left;verticalAlign=top;spacingLeft=4;spacingRight=4;overflow=hidden;rotatable=0;points=[[0,0.5],[1,0.5]];portConstraint=eastwest;whiteSpace=wrap;html=1;" parent="rNS2HbV7GtbA0sjUmiK6-77" vertex="1">
          <mxGeometry y="26" width="450" height="26" as="geometry" />
        </mxCell>
        <mxCell id="rNS2HbV7GtbA0sjUmiK6-84" value="- fecha_prestamo : datetime" style="text;strokeColor=none;fillColor=none;align=left;verticalAlign=top;spacingLeft=4;spacingRight=4;overflow=hidden;rotatable=0;points=[[0,0.5],[1,0.5]];portConstraint=eastwest;whiteSpace=wrap;html=1;" parent="rNS2HbV7GtbA0sjUmiK6-77" vertex="1">
          <mxGeometry y="52" width="450" height="26" as="geometry" />
        </mxCell>
        <mxCell id="rNS2HbV7GtbA0sjUmiK6-83" value="- fecha_devolucion : datetime" style="text;strokeColor=none;fillColor=none;align=left;verticalAlign=top;spacingLeft=4;spacingRight=4;overflow=hidden;rotatable=0;points=[[0,0.5],[1,0.5]];portConstraint=eastwest;whiteSpace=wrap;html=1;" parent="rNS2HbV7GtbA0sjUmiK6-77" vertex="1">
          <mxGeometry y="78" width="450" height="26" as="geometry" />
        </mxCell>
        <mxCell id="rNS2HbV7GtbA0sjUmiK6-82" value="- fecha_devuelto : datetime" style="text;strokeColor=none;fillColor=none;align=left;verticalAlign=top;spacingLeft=4;spacingRight=4;overflow=hidden;rotatable=0;points=[[0,0.5],[1,0.5]];portConstraint=eastwest;whiteSpace=wrap;html=1;" parent="rNS2HbV7GtbA0sjUmiK6-77" vertex="1">
          <mxGeometry y="104" width="450" height="26" as="geometry" />
        </mxCell>
        <mxCell id="rNS2HbV7GtbA0sjUmiK6-78" value="- cantidad_solicitada : int" style="text;strokeColor=none;fillColor=none;align=left;verticalAlign=top;spacingLeft=4;spacingRight=4;overflow=hidden;rotatable=0;points=[[0,0.5],[1,0.5]];portConstraint=eastwest;whiteSpace=wrap;html=1;" parent="rNS2HbV7GtbA0sjUmiK6-77" vertex="1">
          <mxGeometry y="130" width="450" height="26" as="geometry" />
        </mxCell>
        <mxCell id="rNS2HbV7GtbA0sjUmiK6-79" value="" style="line;strokeWidth=1;fillColor=none;align=left;verticalAlign=middle;spacingTop=-1;spacingLeft=3;spacingRight=3;rotatable=0;labelPosition=right;points=[];portConstraint=eastwest;strokeColor=inherit;" parent="rNS2HbV7GtbA0sjUmiK6-77" vertex="1">
          <mxGeometry y="156" width="450" height="8" as="geometry" />
        </mxCell>
        <mxCell id="rNS2HbV7GtbA0sjUmiK6-80" value="+ sumar_dias_laborales(fecha_prestamo: datetime, dias_prestamo: int) : datetime" style="text;strokeColor=none;fillColor=none;align=left;verticalAlign=top;spacingLeft=4;spacingRight=4;overflow=hidden;rotatable=0;points=[[0,0.5],[1,0.5]];portConstraint=eastwest;whiteSpace=wrap;html=1;" parent="rNS2HbV7GtbA0sjUmiK6-77" vertex="1">
          <mxGeometry y="164" width="450" height="26" as="geometry" />
        </mxCell>
        <mxCell id="rNS2HbV7GtbA0sjUmiK6-85" value="+ calcular_fechas() : void" style="text;strokeColor=none;fillColor=none;align=left;verticalAlign=top;spacingLeft=4;spacingRight=4;overflow=hidden;rotatable=0;points=[[0,0.5],[1,0.5]];portConstraint=eastwest;whiteSpace=wrap;html=1;" parent="rNS2HbV7GtbA0sjUmiK6-77" vertex="1">
          <mxGeometry y="190" width="450" height="26" as="geometry" />
        </mxCell>
        <mxCell id="rNS2HbV7GtbA0sjUmiK6-86" value="Usuario" style="swimlane;fontStyle=1;align=center;verticalAlign=top;childLayout=stackLayout;horizontal=1;startSize=26;horizontalStack=0;resizeParent=1;resizeParentMax=0;resizeLast=0;collapsible=1;marginBottom=0;whiteSpace=wrap;html=1;" parent="1" vertex="1">
          <mxGeometry x="483" y="1820" width="160" height="294" as="geometry" />
        </mxCell>
        <mxCell id="rNS2HbV7GtbA0sjUmiK6-87" value="- id_usuario : int " style="text;strokeColor=none;fillColor=none;align=left;verticalAlign=top;spacingLeft=4;spacingRight=4;overflow=hidden;rotatable=0;points=[[0,0.5],[1,0.5]];portConstraint=eastwest;whiteSpace=wrap;html=1;" parent="rNS2HbV7GtbA0sjUmiK6-86" vertex="1">
          <mxGeometry y="26" width="160" height="26" as="geometry" />
        </mxCell>
        <mxCell id="rNS2HbV7GtbA0sjUmiK6-95" value="- nombre_usuario : str" style="text;strokeColor=none;fillColor=none;align=left;verticalAlign=top;spacingLeft=4;spacingRight=4;overflow=hidden;rotatable=0;points=[[0,0.5],[1,0.5]];portConstraint=eastwest;whiteSpace=wrap;html=1;" parent="rNS2HbV7GtbA0sjUmiK6-86" vertex="1">
          <mxGeometry y="52" width="160" height="26" as="geometry" />
        </mxCell>
        <mxCell id="rNS2HbV7GtbA0sjUmiK6-97" value="- correo_usuario : str" style="text;strokeColor=none;fillColor=none;align=left;verticalAlign=top;spacingLeft=4;spacingRight=4;overflow=hidden;rotatable=0;points=[[0,0.5],[1,0.5]];portConstraint=eastwest;whiteSpace=wrap;html=1;" parent="rNS2HbV7GtbA0sjUmiK6-86" vertex="1">
          <mxGeometry y="78" width="160" height="26" as="geometry" />
        </mxCell>
        <mxCell id="rNS2HbV7GtbA0sjUmiK6-96" value="- telefono_usuario : str " style="text;strokeColor=none;fillColor=none;align=left;verticalAlign=top;spacingLeft=4;spacingRight=4;overflow=hidden;rotatable=0;points=[[0,0.5],[1,0.5]];portConstraint=eastwest;whiteSpace=wrap;html=1;" parent="rNS2HbV7GtbA0sjUmiK6-86" vertex="1">
          <mxGeometry y="104" width="160" height="26" as="geometry" />
        </mxCell>
        <mxCell id="rNS2HbV7GtbA0sjUmiK6-92" value=" - rut_usuario : str  " style="text;strokeColor=none;fillColor=none;align=left;verticalAlign=top;spacingLeft=4;spacingRight=4;overflow=hidden;rotatable=0;points=[[0,0.5],[1,0.5]];portConstraint=eastwest;whiteSpace=wrap;html=1;" parent="rNS2HbV7GtbA0sjUmiK6-86" vertex="1">
          <mxGeometry y="130" width="160" height="26" as="geometry" />
        </mxCell>
        <mxCell id="rNS2HbV7GtbA0sjUmiK6-94" value="- codigo_pais : str  " style="text;strokeColor=none;fillColor=none;align=left;verticalAlign=top;spacingLeft=4;spacingRight=4;overflow=hidden;rotatable=0;points=[[0,0.5],[1,0.5]];portConstraint=eastwest;whiteSpace=wrap;html=1;" parent="rNS2HbV7GtbA0sjUmiK6-86" vertex="1">
          <mxGeometry y="156" width="160" height="26" as="geometry" />
        </mxCell>
        <mxCell id="rNS2HbV7GtbA0sjUmiK6-93" value="- habilitado : bool" style="text;strokeColor=none;fillColor=none;align=left;verticalAlign=top;spacingLeft=4;spacingRight=4;overflow=hidden;rotatable=0;points=[[0,0.5],[1,0.5]];portConstraint=eastwest;whiteSpace=wrap;html=1;" parent="rNS2HbV7GtbA0sjUmiK6-86" vertex="1">
          <mxGeometry y="182" width="160" height="26" as="geometry" />
        </mxCell>
        <mxCell id="rNS2HbV7GtbA0sjUmiK6-91" value="- fecha_creacion : datetime" style="text;strokeColor=none;fillColor=none;align=left;verticalAlign=top;spacingLeft=4;spacingRight=4;overflow=hidden;rotatable=0;points=[[0,0.5],[1,0.5]];portConstraint=eastwest;whiteSpace=wrap;html=1;" parent="rNS2HbV7GtbA0sjUmiK6-86" vertex="1">
          <mxGeometry y="208" width="160" height="26" as="geometry" />
        </mxCell>
        <mxCell id="rNS2HbV7GtbA0sjUmiK6-90" value="- id_tipo_usuario : int" style="text;strokeColor=none;fillColor=none;align=left;verticalAlign=top;spacingLeft=4;spacingRight=4;overflow=hidden;rotatable=0;points=[[0,0.5],[1,0.5]];portConstraint=eastwest;whiteSpace=wrap;html=1;" parent="rNS2HbV7GtbA0sjUmiK6-86" vertex="1">
          <mxGeometry y="234" width="160" height="26" as="geometry" />
        </mxCell>
        <mxCell id="rNS2HbV7GtbA0sjUmiK6-88" value="" style="line;strokeWidth=1;fillColor=none;align=left;verticalAlign=middle;spacingTop=-1;spacingLeft=3;spacingRight=3;rotatable=0;labelPosition=right;points=[];portConstraint=eastwest;strokeColor=inherit;" parent="rNS2HbV7GtbA0sjUmiK6-86" vertex="1">
          <mxGeometry y="260" width="160" height="8" as="geometry" />
        </mxCell>
        <mxCell id="rNS2HbV7GtbA0sjUmiK6-89" value="+ validar_correo(): bool" style="text;strokeColor=none;fillColor=none;align=left;verticalAlign=top;spacingLeft=4;spacingRight=4;overflow=hidden;rotatable=0;points=[[0,0.5],[1,0.5]];portConstraint=eastwest;whiteSpace=wrap;html=1;" parent="rNS2HbV7GtbA0sjUmiK6-86" vertex="1">
          <mxGeometry y="268" width="160" height="26" as="geometry" />
        </mxCell>
        <mxCell id="L4Z4_Rrcar_B2OlikC2M-4" value="" style="endArrow=none;html=1;rounded=0;edgeStyle=elbowEdgeStyle;elbow=vertical;" edge="1" parent="1" source="rNS2HbV7GtbA0sjUmiK6-34" target="rNS2HbV7GtbA0sjUmiK6-66">
          <mxGeometry width="50" height="50" relative="1" as="geometry">
            <mxPoint x="1183" y="1467" as="sourcePoint" />
            <mxPoint x="1233" y="1417" as="targetPoint" />
            <Array as="points">
              <mxPoint x="1118" y="1430" />
            </Array>
          </mxGeometry>
        </mxCell>
        <mxCell id="L4Z4_Rrcar_B2OlikC2M-12" value="" style="endArrow=none;html=1;rounded=0;edgeStyle=elbowEdgeStyle;elbow=vertical;" edge="1" parent="1" source="rNS2HbV7GtbA0sjUmiK6-34" target="rNS2HbV7GtbA0sjUmiK6-61">
          <mxGeometry width="50" height="50" relative="1" as="geometry">
            <mxPoint x="1651" y="1350" as="sourcePoint" />
            <mxPoint x="1701" y="1300" as="targetPoint" />
          </mxGeometry>
        </mxCell>
        <mxCell id="L4Z4_Rrcar_B2OlikC2M-14" value="" style="endArrow=none;html=1;rounded=0;edgeStyle=elbowEdgeStyle;elbow=vertical;" edge="1" parent="1" source="rNS2HbV7GtbA0sjUmiK6-40" target="rNS2HbV7GtbA0sjUmiK6-13">
          <mxGeometry width="50" height="50" relative="1" as="geometry">
            <mxPoint x="741" y="1922" as="sourcePoint" />
            <mxPoint x="791" y="1872" as="targetPoint" />
            <Array as="points">
              <mxPoint x="650" y="1768" />
            </Array>
          </mxGeometry>
        </mxCell>
        <mxCell id="L4Z4_Rrcar_B2OlikC2M-18" value="" style="endArrow=open;endFill=1;endSize=12;html=1;rounded=0;edgeStyle=elbowEdgeStyle;elbow=vertical;" edge="1" parent="1" source="rNS2HbV7GtbA0sjUmiK6-9" target="rNS2HbV7GtbA0sjUmiK6-13">
          <mxGeometry width="160" relative="1" as="geometry">
            <mxPoint x="581" y="1729" as="sourcePoint" />
            <mxPoint x="741" y="1729" as="targetPoint" />
          </mxGeometry>
        </mxCell>
        <mxCell id="L4Z4_Rrcar_B2OlikC2M-20" value="" style="endArrow=open;endFill=1;endSize=12;html=1;rounded=0;edgeStyle=elbowEdgeStyle;elbow=vertical;" edge="1" parent="1" source="rNS2HbV7GtbA0sjUmiK6-34" target="rNS2HbV7GtbA0sjUmiK6-9">
          <mxGeometry width="160" relative="1" as="geometry">
            <mxPoint x="1092" y="1690" as="sourcePoint" />
            <mxPoint x="962" y="1534" as="targetPoint" />
          </mxGeometry>
        </mxCell>
        <mxCell id="L4Z4_Rrcar_B2OlikC2M-21" value="" style="endArrow=open;endFill=1;endSize=12;html=1;rounded=0;edgeStyle=elbowEdgeStyle;elbow=vertical;" edge="1" parent="1" source="rNS2HbV7GtbA0sjUmiK6-52" target="rNS2HbV7GtbA0sjUmiK6-34">
          <mxGeometry width="160" relative="1" as="geometry">
            <mxPoint x="936" y="1859" as="sourcePoint" />
            <mxPoint x="1096" y="1859" as="targetPoint" />
          </mxGeometry>
        </mxCell>
        <mxCell id="L4Z4_Rrcar_B2OlikC2M-22" value="" style="endArrow=open;endFill=1;endSize=12;html=1;rounded=0;edgeStyle=elbowEdgeStyle;elbow=vertical;" edge="1" parent="1" source="rNS2HbV7GtbA0sjUmiK6-52" target="rNS2HbV7GtbA0sjUmiK6-40">
          <mxGeometry width="160" relative="1" as="geometry">
            <mxPoint x="936" y="1859" as="sourcePoint" />
            <mxPoint x="1096" y="1859" as="targetPoint" />
          </mxGeometry>
        </mxCell>
        <mxCell id="L4Z4_Rrcar_B2OlikC2M-23" value="" style="endArrow=open;endFill=1;endSize=12;html=1;rounded=0;edgeStyle=elbowEdgeStyle;elbow=vertical;" edge="1" parent="1" source="rNS2HbV7GtbA0sjUmiK6-61" target="rNS2HbV7GtbA0sjUmiK6-5">
          <mxGeometry width="160" relative="1" as="geometry">
            <mxPoint x="845" y="1261" as="sourcePoint" />
            <mxPoint x="1005" y="1261" as="targetPoint" />
          </mxGeometry>
        </mxCell>
        <mxCell id="L4Z4_Rrcar_B2OlikC2M-24" value="" style="endArrow=open;endFill=1;endSize=12;html=1;rounded=0;edgeStyle=elbowEdgeStyle;elbow=vertical;" edge="1" parent="1" source="rNS2HbV7GtbA0sjUmiK6-77" target="rNS2HbV7GtbA0sjUmiK6-52">
          <mxGeometry width="160" relative="1" as="geometry">
            <mxPoint x="728" y="2171" as="sourcePoint" />
            <mxPoint x="888" y="2171" as="targetPoint" />
            <Array as="points">
              <mxPoint x="1157" y="2028" />
            </Array>
          </mxGeometry>
        </mxCell>
        <mxCell id="L4Z4_Rrcar_B2OlikC2M-25" value="" style="endArrow=open;endFill=1;endSize=12;html=1;rounded=0;edgeStyle=elbowEdgeStyle;elbow=vertical;" edge="1" parent="1" source="rNS2HbV7GtbA0sjUmiK6-77" target="rNS2HbV7GtbA0sjUmiK6-86">
          <mxGeometry width="160" relative="1" as="geometry">
            <mxPoint x="728" y="2171" as="sourcePoint" />
            <mxPoint x="888" y="2171" as="targetPoint" />
          </mxGeometry>
        </mxCell>
        <mxCell id="L4Z4_Rrcar_B2OlikC2M-26" value="" style="endArrow=open;endFill=1;endSize=12;html=1;rounded=0;edgeStyle=elbowEdgeStyle;elbow=vertical;" edge="1" parent="1" source="rNS2HbV7GtbA0sjUmiK6-86" target="rNS2HbV7GtbA0sjUmiK6-13">
          <mxGeometry width="160" relative="1" as="geometry">
            <mxPoint x="299" y="1937" as="sourcePoint" />
            <mxPoint x="459" y="1937" as="targetPoint" />
            <Array as="points">
              <mxPoint x="494" y="1729" />
              <mxPoint x="494" y="1820" />
            </Array>
          </mxGeometry>
        </mxCell>
        <mxCell id="L4Z4_Rrcar_B2OlikC2M-28" value="" style="endArrow=open;endFill=1;endSize=12;html=1;rounded=0;edgeStyle=elbowEdgeStyle;elbow=vertical;" edge="1" parent="1" source="rNS2HbV7GtbA0sjUmiK6-86" target="rNS2HbV7GtbA0sjUmiK6-1">
          <mxGeometry width="160" relative="1" as="geometry">
            <mxPoint x="299" y="1937" as="sourcePoint" />
            <mxPoint x="459" y="1937" as="targetPoint" />
          </mxGeometry>
        </mxCell>
        <mxCell id="L4Z4_Rrcar_B2OlikC2M-30" value="Prestar Libro" style="endArrow=open;endSize=12;dashed=1;html=1;rounded=0;edgeStyle=elbowEdgeStyle;elbow=vertical;" edge="1" parent="1" source="rNS2HbV7GtbA0sjUmiK6-77" target="rNS2HbV7GtbA0sjUmiK6-34">
          <mxGeometry width="160" relative="1" as="geometry">
            <mxPoint x="1079" y="1794" as="sourcePoint" />
            <mxPoint x="1239" y="1794" as="targetPoint" />
            <Array as="points">
              <mxPoint x="1469" y="1599" />
            </Array>
          </mxGeometry>
        </mxCell>
        <mxCell id="L4Z4_Rrcar_B2OlikC2M-33" value="1..*" style="text;html=1;align=center;verticalAlign=middle;resizable=0;points=[];autosize=1;strokeColor=none;fillColor=none;" vertex="1" parent="1">
          <mxGeometry x="940" y="1552" width="52" height="26" as="geometry" />
        </mxCell>
        <mxCell id="L4Z4_Rrcar_B2OlikC2M-34" value="1" style="text;html=1;align=center;verticalAlign=middle;resizable=0;points=[];autosize=1;strokeColor=none;fillColor=none;" vertex="1" parent="1">
          <mxGeometry x="1038" y="1552" width="39" height="26" as="geometry" />
        </mxCell>
        <mxCell id="L4Z4_Rrcar_B2OlikC2M-38" value="1" style="text;html=1;align=center;verticalAlign=middle;resizable=0;points=[];autosize=1;strokeColor=none;fillColor=none;" vertex="1" parent="1">
          <mxGeometry x="1131" y="1684" width="39" height="26" as="geometry" />
        </mxCell>
        <mxCell id="L4Z4_Rrcar_B2OlikC2M-39" value="1" style="text;html=1;align=center;verticalAlign=middle;resizable=0;points=[];autosize=1;strokeColor=none;fillColor=none;" vertex="1" parent="1">
          <mxGeometry x="1138" y="1643" width="39" height="26" as="geometry" />
        </mxCell>
        <mxCell id="L4Z4_Rrcar_B2OlikC2M-40" value="1..*" style="text;html=1;align=center;verticalAlign=middle;resizable=0;points=[];autosize=1;strokeColor=none;fillColor=none;" vertex="1" parent="1">
          <mxGeometry x="995" y="2028" width="52" height="26" as="geometry" />
        </mxCell>
        <mxCell id="L4Z4_Rrcar_B2OlikC2M-41" value="1" style="text;html=1;align=center;verticalAlign=middle;resizable=0;points=[];autosize=1;strokeColor=none;fillColor=none;" vertex="1" parent="1">
          <mxGeometry x="643" y="2026" width="39" height="26" as="geometry" />
        </mxCell>
        <mxCell id="L4Z4_Rrcar_B2OlikC2M-42" value="1" style="text;html=1;align=center;verticalAlign=middle;resizable=0;points=[];autosize=1;strokeColor=none;fillColor=none;" vertex="1" parent="1">
          <mxGeometry x="887" y="1840" width="39" height="26" as="geometry" />
        </mxCell>
        <mxCell id="L4Z4_Rrcar_B2OlikC2M-43" value="1..*" style="text;html=1;align=center;verticalAlign=middle;resizable=0;points=[];autosize=1;strokeColor=none;fillColor=none;" vertex="1" parent="1">
          <mxGeometry x="943" y="1844" width="52" height="26" as="geometry" />
        </mxCell>
        <mxCell id="L4Z4_Rrcar_B2OlikC2M-44" value="1..*" style="text;html=1;align=center;verticalAlign=middle;resizable=0;points=[];autosize=1;strokeColor=none;fillColor=none;" vertex="1" parent="1">
          <mxGeometry x="455" y="1794" width="52" height="26" as="geometry" />
        </mxCell>
        <mxCell id="L4Z4_Rrcar_B2OlikC2M-45" value="1" style="text;html=1;align=center;verticalAlign=middle;resizable=0;points=[];autosize=1;strokeColor=none;fillColor=none;" vertex="1" parent="1">
          <mxGeometry x="459" y="1669" width="39" height="26" as="geometry" />
        </mxCell>
        <mxCell id="L4Z4_Rrcar_B2OlikC2M-47" value="1" style="text;html=1;align=center;verticalAlign=middle;resizable=0;points=[];autosize=1;strokeColor=none;fillColor=none;" vertex="1" parent="1">
          <mxGeometry x="631" y="1577" width="39" height="26" as="geometry" />
        </mxCell>
        <mxCell id="L4Z4_Rrcar_B2OlikC2M-49" value="1..*" style="text;html=1;align=center;verticalAlign=middle;resizable=0;points=[];autosize=1;strokeColor=none;fillColor=none;" vertex="1" parent="1">
          <mxGeometry x="675" y="1581" width="52" height="26" as="geometry" />
        </mxCell>
        <mxCell id="L4Z4_Rrcar_B2OlikC2M-50" value="1" style="text;html=1;align=center;verticalAlign=middle;resizable=0;points=[];autosize=1;strokeColor=none;fillColor=none;" vertex="1" parent="1">
          <mxGeometry x="1256" y="1922" width="39" height="26" as="geometry" />
        </mxCell>
        <mxCell id="L4Z4_Rrcar_B2OlikC2M-51" value="1..*" style="text;html=1;align=center;verticalAlign=middle;resizable=0;points=[];autosize=1;strokeColor=none;fillColor=none;" vertex="1" parent="1">
          <mxGeometry x="1253.5" y="1963" width="52" height="26" as="geometry" />
        </mxCell>
      </root>
    </mxGraphModel>
  </diagram>
</mxfile>
